<?xml version="1.0" encoding="UTF-8" standalone="no"?>
<!DOCTYPE svg PUBLIC "-//W3C//DTD SVG 1.1//EN"
 "http://www.w3.org/Graphics/SVG/1.1/DTD/svg11.dtd">
<!-- Generated by graphviz version 2.26.0 (20091210.2329)
 -->
<!-- Title: Genderasadeterminantofvascularcalcificationinpatientswithchronickidneydisease Pages: 1 -->
<svg width="942pt" height="620pt"
 viewBox="0.00 0.00 942.00 620.00" xmlns="http://www.w3.org/2000/svg" xmlns:xlink="http://www.w3.org/1999/xlink">
<g id="graph1" class="graph" transform="scale(1 1) rotate(0) translate(4 616)">
<title>Genderasadeterminantofvascularcalcificationinpatientswithchronickidneydisease</title>
<polygon fill="white" stroke="white" points="-4,5 -4,-616 939,-616 939,5 -4,5"/>
<!-- a -->
<g id="node1" class="node"><title>a</title>
<polygon fill="none" stroke="black" points="409,-611.5 205,-611.5 205,-546.5 409,-546.5 409,-611.5"/>
<text text-anchor="middle" x="307" y="-594.9" font-family="Times Roman,serif" font-size="14.00">Pubmed, Embase, Google Scholar</text>
<text text-anchor="middle" x="307" y="-575.9" font-family="Times Roman,serif" font-size="14.00">1962&#45;2021/05/06</text>
<text text-anchor="middle" x="307" y="-556.9" font-family="Times Roman,serif" font-size="14.00">893 Citation(s)</text>
</g>
<!-- nodups -->
<g id="node3" class="node"><title>nodups</title>
<polygon fill="none" stroke="black" points="367,-510 247,-510 247,-464 367,-464 367,-510"/>
<text text-anchor="middle" x="307" y="-493.4" font-family="Times Roman,serif" font-size="14.00">893 Non&#45;Duplicate</text>
<text text-anchor="middle" x="307" y="-474.4" font-family="Times Roman,serif" font-size="14.00">Citations Screened</text>
</g>
<!-- a&#45;&gt;nodups -->
<g id="edge2" class="edge"><title>a&#45;&gt;nodups</title>
<path fill="none" stroke="black" d="M307,-546.305C307,-537.787 307,-528.602 307,-520.064"/>
<polygon fill="black" stroke="black" points="310.5,-520.06 307,-510.06 303.5,-520.06 310.5,-520.06"/>
</g>
<!-- incex -->
<g id="node5" class="node"><title>incex</title>
<ellipse fill="none" stroke="black" cx="307" cy="-368" rx="288" ry="59.397"/>
<text text-anchor="middle" x="307" y="-393.4" font-family="Times Roman,serif" font-size="14.00">Exclusion</text>
<text text-anchor="middle" x="307" y="-374.4" font-family="Times Roman,serif" font-size="14.00">Not CKD, </text>
<text text-anchor="middle" x="307" y="-355.4" font-family="Times Roman,serif" font-size="14.00">vascular calcification or its predictors not assessed, or</text>
<text text-anchor="middle" x="307" y="-336.4" font-family="Times Roman,serif" font-size="14.00">gender difference on vascular calcification or its predictors not assessed</text>
</g>
<!-- nodups&#45;&gt;incex -->
<g id="edge4" class="edge"><title>nodups&#45;&gt;incex</title>
<path fill="none" stroke="black" d="M307,-463.773C307,-456.124 307,-447.181 307,-437.889"/>
<polygon fill="black" stroke="black" points="310.5,-437.714 307,-427.714 303.5,-437.714 310.5,-437.714"/>
</g>
<!-- ex -->
<g id="node8" class="node"><title>ex</title>
<polygon fill="none" stroke="black" points="777,-391 613,-391 613,-345 777,-345 777,-391"/>
<text text-anchor="middle" x="695" y="-374.4" font-family="Times Roman,serif" font-size="14.00">449 Articles Excluded</text>
<text text-anchor="middle" x="695" y="-355.4" font-family="Times Roman,serif" font-size="14.00">After Title/Abstract Screen</text>
</g>
<!-- incex&#45;&gt;ex -->
<g id="edge7" class="edge"><title>incex&#45;&gt;ex</title>
<path fill="none" stroke="black" d="M595.348,-368C597.811,-368 600.274,-368 602.738,-368"/>
<polygon fill="black" stroke="black" points="602.865,-371.5 612.865,-368 602.865,-364.5 602.865,-371.5"/>
</g>
<!-- ft -->
<g id="node9" class="node"><title>ft</title>
<polygon fill="none" stroke="black" points="377,-272 237,-272 237,-236 377,-236 377,-272"/>
<text text-anchor="middle" x="307" y="-250.9" font-family="Times Roman,serif" font-size="14.00">444 Articles Retrieved</text>
</g>
<!-- incex&#45;&gt;ft -->
<g id="edge8" class="edge"><title>incex&#45;&gt;ft</title>
<path fill="none" stroke="black" d="M307,-308.329C307,-299.292 307,-290.345 307,-282.398"/>
<polygon fill="black" stroke="black" points="310.5,-282.269 307,-272.269 303.5,-282.269 310.5,-282.269"/>
</g>
<!-- incex2 -->
<g id="node12" class="node"><title>incex2</title>
<ellipse fill="none" stroke="black" cx="307" cy="-140" rx="307.091" ry="59.397"/>
<text text-anchor="middle" x="307" y="-165.4" font-family="Times Roman,serif" font-size="14.00">Exclusion</text>
<text text-anchor="middle" x="307" y="-146.4" font-family="Times Roman,serif" font-size="14.00">62 Not CKD</text>
<text text-anchor="middle" x="307" y="-127.4" font-family="Times Roman,serif" font-size="14.00">21 Vascular calcification or its predictors not assessed</text>
<text text-anchor="middle" x="307" y="-108.4" font-family="Times Roman,serif" font-size="14.00">194 Gender difference on vascular calcification or its predictors not assessed</text>
</g>
<!-- ft&#45;&gt;incex2 -->
<g id="edge11" class="edge"><title>ft&#45;&gt;incex2</title>
<path fill="none" stroke="black" d="M307,-235.936C307,-228.574 307,-219.552 307,-210.016"/>
<polygon fill="black" stroke="black" points="310.5,-209.941 307,-199.941 303.5,-209.941 310.5,-209.941"/>
</g>
<!-- ftex -->
<g id="node16" class="node"><title>ftex</title>
<polygon fill="none" stroke="black" points="772,-163 632,-163 632,-117 772,-117 772,-163"/>
<text text-anchor="middle" x="702" y="-146.4" font-family="Times Roman,serif" font-size="14.00">277 Articles Excluded</text>
<text text-anchor="middle" x="702" y="-127.4" font-family="Times Roman,serif" font-size="14.00">After Full Text Screen</text>
</g>
<!-- incex2&#45;&gt;ftex -->
<g id="edge15" class="edge"><title>incex2&#45;&gt;ftex</title>
<path fill="none" stroke="black" d="M614.051,-140C616.656,-140 619.261,-140 621.867,-140"/>
<polygon fill="black" stroke="black" points="621.916,-143.5 631.915,-140 621.915,-136.5 621.916,-143.5"/>
</g>
<!-- inc -->
<g id="node19" class="node"><title>inc</title>
<polygon fill="none" stroke="black" points="374,-40 240,-40 240,-4 374,-4 374,-40"/>
<polygon fill="none" stroke="black" points="378,-44 236,-44 236,-1.77636e-14 378,-3.55271e-15 378,-44"/>
<text text-anchor="middle" x="307" y="-18.9" font-family="Times Roman,serif" font-size="14.00">167 Articles Included</text>
</g>
<!-- incex2&#45;&gt;inc -->
<g id="edge18" class="edge"><title>incex2&#45;&gt;inc</title>
<path fill="none" stroke="black" d="M307,-80.3086C307,-71.3259 307,-62.3645 307,-54.2576"/>
<polygon fill="black" stroke="black" points="310.5,-54.1624 307,-44.1624 303.5,-54.1625 310.5,-54.1624"/>
</g>
</g>
</svg>
